<mxfile host="Electron" modified="2023-07-19T18:01:52.942Z" agent="Mozilla/5.0 (Windows NT 10.0; Win64; x64) AppleWebKit/537.36 (KHTML, like Gecko) draw.io/21.6.1 Chrome/112.0.5615.204 Electron/24.6.1 Safari/537.36" etag="c3fZmnzWNND9LuYqAYdG" version="21.6.1" type="device">
  <diagram name="Page-1" id="fvkyQ9JTO72f5p768bS_">
    <mxGraphModel dx="1820" dy="1280" grid="0" gridSize="10" guides="1" tooltips="1" connect="1" arrows="1" fold="1" page="0" pageScale="1" pageWidth="1600" pageHeight="900" math="0" shadow="0">
      <root>
        <mxCell id="0" />
        <mxCell id="1" parent="0" />
        <mxCell id="pdiKYgsIZ1x_maHo6nU2-1" value="Data Source&lt;br&gt;Plugin" style="whiteSpace=wrap;html=1;aspect=fixed;fontSize=16;" vertex="1" parent="1">
          <mxGeometry x="-379" y="-96" width="80" height="80" as="geometry" />
        </mxCell>
        <mxCell id="pdiKYgsIZ1x_maHo6nU2-2" value="" style="shape=cylinder3;whiteSpace=wrap;html=1;boundedLbl=1;backgroundOutline=1;size=15;fontSize=16;" vertex="1" parent="1">
          <mxGeometry x="-58" y="-96" width="95" height="82" as="geometry" />
        </mxCell>
        <mxCell id="pdiKYgsIZ1x_maHo6nU2-3" value="Scheduled Data Fetcher" style="whiteSpace=wrap;html=1;aspect=fixed;fontSize=16;" vertex="1" parent="1">
          <mxGeometry x="-221" y="-96" width="80" height="80" as="geometry" />
        </mxCell>
        <mxCell id="pdiKYgsIZ1x_maHo6nU2-4" value="" style="endArrow=classic;html=1;rounded=0;fontSize=12;startSize=8;endSize=8;curved=1;entryX=1;entryY=0.25;entryDx=0;entryDy=0;exitX=0;exitY=0.25;exitDx=0;exitDy=0;" edge="1" parent="1" source="pdiKYgsIZ1x_maHo6nU2-3" target="pdiKYgsIZ1x_maHo6nU2-1">
          <mxGeometry width="50" height="50" relative="1" as="geometry">
            <mxPoint x="182" y="232" as="sourcePoint" />
            <mxPoint x="232" y="182" as="targetPoint" />
          </mxGeometry>
        </mxCell>
        <mxCell id="pdiKYgsIZ1x_maHo6nU2-5" value="" style="endArrow=classic;html=1;rounded=0;fontSize=12;startSize=8;endSize=8;curved=1;exitX=1;exitY=0.75;exitDx=0;exitDy=0;entryX=0;entryY=0.75;entryDx=0;entryDy=0;" edge="1" parent="1" source="pdiKYgsIZ1x_maHo6nU2-1" target="pdiKYgsIZ1x_maHo6nU2-3">
          <mxGeometry width="50" height="50" relative="1" as="geometry">
            <mxPoint x="182" y="232" as="sourcePoint" />
            <mxPoint x="232" y="182" as="targetPoint" />
          </mxGeometry>
        </mxCell>
        <mxCell id="pdiKYgsIZ1x_maHo6nU2-6" value="" style="endArrow=classic;html=1;rounded=0;fontSize=12;startSize=8;endSize=8;curved=1;exitX=1;exitY=0.75;exitDx=0;exitDy=0;entryX=0;entryY=0;entryDx=0;entryDy=54;entryPerimeter=0;" edge="1" parent="1" source="pdiKYgsIZ1x_maHo6nU2-3" target="pdiKYgsIZ1x_maHo6nU2-2">
          <mxGeometry width="50" height="50" relative="1" as="geometry">
            <mxPoint x="182" y="232" as="sourcePoint" />
            <mxPoint x="232" y="182" as="targetPoint" />
          </mxGeometry>
        </mxCell>
        <mxCell id="pdiKYgsIZ1x_maHo6nU2-7" value="API" style="whiteSpace=wrap;html=1;aspect=fixed;fontSize=16;" vertex="1" parent="1">
          <mxGeometry x="-50" y="201" width="80" height="80" as="geometry" />
        </mxCell>
        <mxCell id="pdiKYgsIZ1x_maHo6nU2-8" value="Data Provider" style="whiteSpace=wrap;html=1;aspect=fixed;fontSize=16;" vertex="1" parent="1">
          <mxGeometry x="-50" y="62" width="80" height="80" as="geometry" />
        </mxCell>
        <mxCell id="pdiKYgsIZ1x_maHo6nU2-9" value="" style="endArrow=classic;html=1;rounded=0;fontSize=12;startSize=8;endSize=8;curved=1;exitX=0.25;exitY=0;exitDx=0;exitDy=0;entryX=0.25;entryY=1;entryDx=0;entryDy=0;" edge="1" parent="1" source="pdiKYgsIZ1x_maHo6nU2-7" target="pdiKYgsIZ1x_maHo6nU2-8">
          <mxGeometry width="50" height="50" relative="1" as="geometry">
            <mxPoint x="182" y="232" as="sourcePoint" />
            <mxPoint x="232" y="182" as="targetPoint" />
          </mxGeometry>
        </mxCell>
        <mxCell id="pdiKYgsIZ1x_maHo6nU2-10" value="" style="endArrow=classic;html=1;rounded=0;fontSize=12;startSize=8;endSize=8;curved=1;exitX=0.25;exitY=0;exitDx=0;exitDy=0;entryX=0.145;entryY=1;entryDx=0;entryDy=-4.35;entryPerimeter=0;" edge="1" parent="1" source="pdiKYgsIZ1x_maHo6nU2-8" target="pdiKYgsIZ1x_maHo6nU2-2">
          <mxGeometry width="50" height="50" relative="1" as="geometry">
            <mxPoint x="182" y="232" as="sourcePoint" />
            <mxPoint x="232" y="182" as="targetPoint" />
          </mxGeometry>
        </mxCell>
        <mxCell id="pdiKYgsIZ1x_maHo6nU2-11" value="" style="endArrow=classic;html=1;rounded=0;fontSize=12;startSize=8;endSize=8;curved=1;exitX=0.855;exitY=1;exitDx=0;exitDy=-4.35;exitPerimeter=0;entryX=0.75;entryY=0;entryDx=0;entryDy=0;" edge="1" parent="1" source="pdiKYgsIZ1x_maHo6nU2-2" target="pdiKYgsIZ1x_maHo6nU2-8">
          <mxGeometry width="50" height="50" relative="1" as="geometry">
            <mxPoint x="194" y="18" as="sourcePoint" />
            <mxPoint x="244" y="-32" as="targetPoint" />
          </mxGeometry>
        </mxCell>
        <mxCell id="pdiKYgsIZ1x_maHo6nU2-14" style="edgeStyle=none;rounded=0;orthogonalLoop=1;jettySize=auto;html=1;exitX=1;exitY=0.5;exitDx=0;exitDy=0;entryX=0.75;entryY=0;entryDx=0;entryDy=0;fontSize=12;startSize=8;endSize=8;" edge="1" parent="1" source="pdiKYgsIZ1x_maHo6nU2-12" target="pdiKYgsIZ1x_maHo6nU2-7">
          <mxGeometry relative="1" as="geometry">
            <Array as="points">
              <mxPoint x="267" y="102" />
              <mxPoint x="267" y="165" />
              <mxPoint x="10" y="165" />
            </Array>
          </mxGeometry>
        </mxCell>
        <mxCell id="pdiKYgsIZ1x_maHo6nU2-12" value="Calculator" style="triangle;whiteSpace=wrap;html=1;fontSize=16;" vertex="1" parent="1">
          <mxGeometry x="118" y="62" width="90" height="80" as="geometry" />
        </mxCell>
        <mxCell id="pdiKYgsIZ1x_maHo6nU2-13" value="" style="endArrow=classic;html=1;rounded=0;fontSize=12;startSize=8;endSize=8;curved=1;exitX=1;exitY=0.5;exitDx=0;exitDy=0;" edge="1" parent="1" source="pdiKYgsIZ1x_maHo6nU2-8" target="pdiKYgsIZ1x_maHo6nU2-12">
          <mxGeometry width="50" height="50" relative="1" as="geometry">
            <mxPoint x="182" y="232" as="sourcePoint" />
            <mxPoint x="232" y="182" as="targetPoint" />
          </mxGeometry>
        </mxCell>
        <mxCell id="pdiKYgsIZ1x_maHo6nU2-16" value="Weather" style="shape=table;startSize=30;container=1;collapsible=0;childLayout=tableLayout;fontSize=16;" vertex="1" parent="1">
          <mxGeometry x="253" y="-215" width="240" height="190" as="geometry" />
        </mxCell>
        <mxCell id="pdiKYgsIZ1x_maHo6nU2-17" value="" style="shape=tableRow;horizontal=0;startSize=0;swimlaneHead=0;swimlaneBody=0;strokeColor=inherit;top=0;left=0;bottom=0;right=0;collapsible=0;dropTarget=0;fillColor=none;points=[[0,0.5],[1,0.5]];portConstraint=eastwest;fontSize=16;" vertex="1" parent="pdiKYgsIZ1x_maHo6nU2-16">
          <mxGeometry y="30" width="240" height="40" as="geometry" />
        </mxCell>
        <mxCell id="pdiKYgsIZ1x_maHo6nU2-18" value="ID" style="shape=partialRectangle;html=1;whiteSpace=wrap;connectable=0;strokeColor=#b85450;overflow=hidden;fillColor=#f8cecc;top=0;left=0;bottom=0;right=0;pointerEvents=1;fontSize=16;" vertex="1" parent="pdiKYgsIZ1x_maHo6nU2-17">
          <mxGeometry width="60" height="40" as="geometry">
            <mxRectangle width="60" height="40" as="alternateBounds" />
          </mxGeometry>
        </mxCell>
        <mxCell id="pdiKYgsIZ1x_maHo6nU2-53" value="TIME" style="shape=partialRectangle;html=1;whiteSpace=wrap;connectable=0;strokeColor=#b85450;overflow=hidden;fillColor=#f8cecc;top=0;left=0;bottom=0;right=0;pointerEvents=1;fontSize=16;" vertex="1" parent="pdiKYgsIZ1x_maHo6nU2-17">
          <mxGeometry x="60" width="60" height="40" as="geometry">
            <mxRectangle width="60" height="40" as="alternateBounds" />
          </mxGeometry>
        </mxCell>
        <mxCell id="pdiKYgsIZ1x_maHo6nU2-41" value="TA" style="shape=partialRectangle;html=1;whiteSpace=wrap;connectable=0;strokeColor=inherit;overflow=hidden;fillColor=none;top=0;left=0;bottom=0;right=0;pointerEvents=1;fontSize=16;" vertex="1" parent="pdiKYgsIZ1x_maHo6nU2-17">
          <mxGeometry x="120" width="60" height="40" as="geometry">
            <mxRectangle width="60" height="40" as="alternateBounds" />
          </mxGeometry>
        </mxCell>
        <mxCell id="pdiKYgsIZ1x_maHo6nU2-59" value="HR" style="shape=partialRectangle;html=1;whiteSpace=wrap;connectable=0;strokeColor=inherit;overflow=hidden;fillColor=none;top=0;left=0;bottom=0;right=0;pointerEvents=1;fontSize=16;" vertex="1" parent="pdiKYgsIZ1x_maHo6nU2-17">
          <mxGeometry x="180" width="60" height="40" as="geometry">
            <mxRectangle width="60" height="40" as="alternateBounds" />
          </mxGeometry>
        </mxCell>
        <mxCell id="pdiKYgsIZ1x_maHo6nU2-21" value="" style="shape=tableRow;horizontal=0;startSize=0;swimlaneHead=0;swimlaneBody=0;strokeColor=inherit;top=0;left=0;bottom=0;right=0;collapsible=0;dropTarget=0;fillColor=none;points=[[0,0.5],[1,0.5]];portConstraint=eastwest;fontSize=16;" vertex="1" parent="pdiKYgsIZ1x_maHo6nU2-16">
          <mxGeometry y="70" width="240" height="40" as="geometry" />
        </mxCell>
        <mxCell id="pdiKYgsIZ1x_maHo6nU2-22" value="" style="shape=partialRectangle;html=1;whiteSpace=wrap;connectable=0;strokeColor=inherit;overflow=hidden;fillColor=none;top=0;left=0;bottom=0;right=0;pointerEvents=1;fontSize=16;" vertex="1" parent="pdiKYgsIZ1x_maHo6nU2-21">
          <mxGeometry width="60" height="40" as="geometry">
            <mxRectangle width="60" height="40" as="alternateBounds" />
          </mxGeometry>
        </mxCell>
        <mxCell id="pdiKYgsIZ1x_maHo6nU2-54" style="shape=partialRectangle;html=1;whiteSpace=wrap;connectable=0;strokeColor=inherit;overflow=hidden;fillColor=none;top=0;left=0;bottom=0;right=0;pointerEvents=1;fontSize=16;" vertex="1" parent="pdiKYgsIZ1x_maHo6nU2-21">
          <mxGeometry x="60" width="60" height="40" as="geometry">
            <mxRectangle width="60" height="40" as="alternateBounds" />
          </mxGeometry>
        </mxCell>
        <mxCell id="pdiKYgsIZ1x_maHo6nU2-42" style="shape=partialRectangle;html=1;whiteSpace=wrap;connectable=0;strokeColor=inherit;overflow=hidden;fillColor=none;top=0;left=0;bottom=0;right=0;pointerEvents=1;fontSize=16;" vertex="1" parent="pdiKYgsIZ1x_maHo6nU2-21">
          <mxGeometry x="120" width="60" height="40" as="geometry">
            <mxRectangle width="60" height="40" as="alternateBounds" />
          </mxGeometry>
        </mxCell>
        <mxCell id="pdiKYgsIZ1x_maHo6nU2-60" style="shape=partialRectangle;html=1;whiteSpace=wrap;connectable=0;strokeColor=inherit;overflow=hidden;fillColor=none;top=0;left=0;bottom=0;right=0;pointerEvents=1;fontSize=16;" vertex="1" parent="pdiKYgsIZ1x_maHo6nU2-21">
          <mxGeometry x="180" width="60" height="40" as="geometry">
            <mxRectangle width="60" height="40" as="alternateBounds" />
          </mxGeometry>
        </mxCell>
        <mxCell id="pdiKYgsIZ1x_maHo6nU2-25" value="" style="shape=tableRow;horizontal=0;startSize=0;swimlaneHead=0;swimlaneBody=0;strokeColor=inherit;top=0;left=0;bottom=0;right=0;collapsible=0;dropTarget=0;fillColor=none;points=[[0,0.5],[1,0.5]];portConstraint=eastwest;fontSize=16;" vertex="1" parent="pdiKYgsIZ1x_maHo6nU2-16">
          <mxGeometry y="110" width="240" height="40" as="geometry" />
        </mxCell>
        <mxCell id="pdiKYgsIZ1x_maHo6nU2-26" value="" style="shape=partialRectangle;html=1;whiteSpace=wrap;connectable=0;strokeColor=inherit;overflow=hidden;fillColor=none;top=0;left=0;bottom=0;right=0;pointerEvents=1;fontSize=16;" vertex="1" parent="pdiKYgsIZ1x_maHo6nU2-25">
          <mxGeometry width="60" height="40" as="geometry">
            <mxRectangle width="60" height="40" as="alternateBounds" />
          </mxGeometry>
        </mxCell>
        <mxCell id="pdiKYgsIZ1x_maHo6nU2-55" style="shape=partialRectangle;html=1;whiteSpace=wrap;connectable=0;strokeColor=inherit;overflow=hidden;fillColor=none;top=0;left=0;bottom=0;right=0;pointerEvents=1;fontSize=16;" vertex="1" parent="pdiKYgsIZ1x_maHo6nU2-25">
          <mxGeometry x="60" width="60" height="40" as="geometry">
            <mxRectangle width="60" height="40" as="alternateBounds" />
          </mxGeometry>
        </mxCell>
        <mxCell id="pdiKYgsIZ1x_maHo6nU2-43" style="shape=partialRectangle;html=1;whiteSpace=wrap;connectable=0;strokeColor=inherit;overflow=hidden;fillColor=none;top=0;left=0;bottom=0;right=0;pointerEvents=1;fontSize=16;" vertex="1" parent="pdiKYgsIZ1x_maHo6nU2-25">
          <mxGeometry x="120" width="60" height="40" as="geometry">
            <mxRectangle width="60" height="40" as="alternateBounds" />
          </mxGeometry>
        </mxCell>
        <mxCell id="pdiKYgsIZ1x_maHo6nU2-61" style="shape=partialRectangle;html=1;whiteSpace=wrap;connectable=0;strokeColor=inherit;overflow=hidden;fillColor=none;top=0;left=0;bottom=0;right=0;pointerEvents=1;fontSize=16;" vertex="1" parent="pdiKYgsIZ1x_maHo6nU2-25">
          <mxGeometry x="180" width="60" height="40" as="geometry">
            <mxRectangle width="60" height="40" as="alternateBounds" />
          </mxGeometry>
        </mxCell>
        <mxCell id="pdiKYgsIZ1x_maHo6nU2-29" value="" style="shape=tableRow;horizontal=0;startSize=0;swimlaneHead=0;swimlaneBody=0;strokeColor=inherit;top=0;left=0;bottom=0;right=0;collapsible=0;dropTarget=0;fillColor=none;points=[[0,0.5],[1,0.5]];portConstraint=eastwest;fontSize=16;" vertex="1" parent="pdiKYgsIZ1x_maHo6nU2-16">
          <mxGeometry y="150" width="240" height="40" as="geometry" />
        </mxCell>
        <mxCell id="pdiKYgsIZ1x_maHo6nU2-30" value="" style="shape=partialRectangle;html=1;whiteSpace=wrap;connectable=0;strokeColor=inherit;overflow=hidden;fillColor=none;top=0;left=0;bottom=0;right=0;pointerEvents=1;fontSize=16;" vertex="1" parent="pdiKYgsIZ1x_maHo6nU2-29">
          <mxGeometry width="60" height="40" as="geometry">
            <mxRectangle width="60" height="40" as="alternateBounds" />
          </mxGeometry>
        </mxCell>
        <mxCell id="pdiKYgsIZ1x_maHo6nU2-56" style="shape=partialRectangle;html=1;whiteSpace=wrap;connectable=0;strokeColor=inherit;overflow=hidden;fillColor=none;top=0;left=0;bottom=0;right=0;pointerEvents=1;fontSize=16;" vertex="1" parent="pdiKYgsIZ1x_maHo6nU2-29">
          <mxGeometry x="60" width="60" height="40" as="geometry">
            <mxRectangle width="60" height="40" as="alternateBounds" />
          </mxGeometry>
        </mxCell>
        <mxCell id="pdiKYgsIZ1x_maHo6nU2-44" style="shape=partialRectangle;html=1;whiteSpace=wrap;connectable=0;strokeColor=inherit;overflow=hidden;fillColor=none;top=0;left=0;bottom=0;right=0;pointerEvents=1;fontSize=16;" vertex="1" parent="pdiKYgsIZ1x_maHo6nU2-29">
          <mxGeometry x="120" width="60" height="40" as="geometry">
            <mxRectangle width="60" height="40" as="alternateBounds" />
          </mxGeometry>
        </mxCell>
        <mxCell id="pdiKYgsIZ1x_maHo6nU2-62" style="shape=partialRectangle;html=1;whiteSpace=wrap;connectable=0;strokeColor=inherit;overflow=hidden;fillColor=none;top=0;left=0;bottom=0;right=0;pointerEvents=1;fontSize=16;" vertex="1" parent="pdiKYgsIZ1x_maHo6nU2-29">
          <mxGeometry x="180" width="60" height="40" as="geometry">
            <mxRectangle width="60" height="40" as="alternateBounds" />
          </mxGeometry>
        </mxCell>
        <mxCell id="pdiKYgsIZ1x_maHo6nU2-57" value="long, lat" style="text;html=1;align=center;verticalAlign=middle;resizable=0;points=[];autosize=1;strokeColor=none;fillColor=none;fontSize=16;" vertex="1" parent="1">
          <mxGeometry x="-104" y="152" width="74" height="31" as="geometry" />
        </mxCell>
        <mxCell id="pdiKYgsIZ1x_maHo6nU2-63" value="Station" style="shape=table;startSize=30;container=1;collapsible=0;childLayout=tableLayout;fontSize=16;" vertex="1" parent="1">
          <mxGeometry x="55" y="-215" width="180" height="150" as="geometry" />
        </mxCell>
        <mxCell id="pdiKYgsIZ1x_maHo6nU2-64" value="" style="shape=tableRow;horizontal=0;startSize=0;swimlaneHead=0;swimlaneBody=0;strokeColor=inherit;top=0;left=0;bottom=0;right=0;collapsible=0;dropTarget=0;fillColor=none;points=[[0,0.5],[1,0.5]];portConstraint=eastwest;fontSize=16;" vertex="1" parent="pdiKYgsIZ1x_maHo6nU2-63">
          <mxGeometry y="30" width="180" height="40" as="geometry" />
        </mxCell>
        <mxCell id="pdiKYgsIZ1x_maHo6nU2-65" value="ID" style="shape=partialRectangle;html=1;whiteSpace=wrap;connectable=0;strokeColor=#b85450;overflow=hidden;fillColor=#f8cecc;top=0;left=0;bottom=0;right=0;pointerEvents=1;fontSize=16;" vertex="1" parent="pdiKYgsIZ1x_maHo6nU2-64">
          <mxGeometry width="60" height="40" as="geometry">
            <mxRectangle width="60" height="40" as="alternateBounds" />
          </mxGeometry>
        </mxCell>
        <mxCell id="pdiKYgsIZ1x_maHo6nU2-66" value="LAT" style="shape=partialRectangle;html=1;whiteSpace=wrap;connectable=0;strokeColor=inherit;overflow=hidden;fillColor=none;top=0;left=0;bottom=0;right=0;pointerEvents=1;fontSize=16;" vertex="1" parent="pdiKYgsIZ1x_maHo6nU2-64">
          <mxGeometry x="60" width="60" height="40" as="geometry">
            <mxRectangle width="60" height="40" as="alternateBounds" />
          </mxGeometry>
        </mxCell>
        <mxCell id="pdiKYgsIZ1x_maHo6nU2-73" value="LON" style="shape=partialRectangle;html=1;whiteSpace=wrap;connectable=0;strokeColor=inherit;overflow=hidden;fillColor=none;top=0;left=0;bottom=0;right=0;pointerEvents=1;fontSize=16;" vertex="1" parent="pdiKYgsIZ1x_maHo6nU2-64">
          <mxGeometry x="120" width="60" height="40" as="geometry">
            <mxRectangle width="60" height="40" as="alternateBounds" />
          </mxGeometry>
        </mxCell>
        <mxCell id="pdiKYgsIZ1x_maHo6nU2-67" value="" style="shape=tableRow;horizontal=0;startSize=0;swimlaneHead=0;swimlaneBody=0;strokeColor=inherit;top=0;left=0;bottom=0;right=0;collapsible=0;dropTarget=0;fillColor=none;points=[[0,0.5],[1,0.5]];portConstraint=eastwest;fontSize=16;" vertex="1" parent="pdiKYgsIZ1x_maHo6nU2-63">
          <mxGeometry y="70" width="180" height="40" as="geometry" />
        </mxCell>
        <mxCell id="pdiKYgsIZ1x_maHo6nU2-68" value="" style="shape=partialRectangle;html=1;whiteSpace=wrap;connectable=0;strokeColor=inherit;overflow=hidden;fillColor=none;top=0;left=0;bottom=0;right=0;pointerEvents=1;fontSize=16;" vertex="1" parent="pdiKYgsIZ1x_maHo6nU2-67">
          <mxGeometry width="60" height="40" as="geometry">
            <mxRectangle width="60" height="40" as="alternateBounds" />
          </mxGeometry>
        </mxCell>
        <mxCell id="pdiKYgsIZ1x_maHo6nU2-69" value="" style="shape=partialRectangle;html=1;whiteSpace=wrap;connectable=0;strokeColor=inherit;overflow=hidden;fillColor=none;top=0;left=0;bottom=0;right=0;pointerEvents=1;fontSize=16;" vertex="1" parent="pdiKYgsIZ1x_maHo6nU2-67">
          <mxGeometry x="60" width="60" height="40" as="geometry">
            <mxRectangle width="60" height="40" as="alternateBounds" />
          </mxGeometry>
        </mxCell>
        <mxCell id="pdiKYgsIZ1x_maHo6nU2-74" style="shape=partialRectangle;html=1;whiteSpace=wrap;connectable=0;strokeColor=inherit;overflow=hidden;fillColor=none;top=0;left=0;bottom=0;right=0;pointerEvents=1;fontSize=16;" vertex="1" parent="pdiKYgsIZ1x_maHo6nU2-67">
          <mxGeometry x="120" width="60" height="40" as="geometry">
            <mxRectangle width="60" height="40" as="alternateBounds" />
          </mxGeometry>
        </mxCell>
        <mxCell id="pdiKYgsIZ1x_maHo6nU2-70" value="" style="shape=tableRow;horizontal=0;startSize=0;swimlaneHead=0;swimlaneBody=0;strokeColor=inherit;top=0;left=0;bottom=0;right=0;collapsible=0;dropTarget=0;fillColor=none;points=[[0,0.5],[1,0.5]];portConstraint=eastwest;fontSize=16;" vertex="1" parent="pdiKYgsIZ1x_maHo6nU2-63">
          <mxGeometry y="110" width="180" height="40" as="geometry" />
        </mxCell>
        <mxCell id="pdiKYgsIZ1x_maHo6nU2-71" value="" style="shape=partialRectangle;html=1;whiteSpace=wrap;connectable=0;strokeColor=inherit;overflow=hidden;fillColor=none;top=0;left=0;bottom=0;right=0;pointerEvents=1;fontSize=16;" vertex="1" parent="pdiKYgsIZ1x_maHo6nU2-70">
          <mxGeometry width="60" height="40" as="geometry">
            <mxRectangle width="60" height="40" as="alternateBounds" />
          </mxGeometry>
        </mxCell>
        <mxCell id="pdiKYgsIZ1x_maHo6nU2-72" value="" style="shape=partialRectangle;html=1;whiteSpace=wrap;connectable=0;strokeColor=inherit;overflow=hidden;fillColor=none;top=0;left=0;bottom=0;right=0;pointerEvents=1;fontSize=16;" vertex="1" parent="pdiKYgsIZ1x_maHo6nU2-70">
          <mxGeometry x="60" width="60" height="40" as="geometry">
            <mxRectangle width="60" height="40" as="alternateBounds" />
          </mxGeometry>
        </mxCell>
        <mxCell id="pdiKYgsIZ1x_maHo6nU2-75" style="shape=partialRectangle;html=1;whiteSpace=wrap;connectable=0;strokeColor=inherit;overflow=hidden;fillColor=none;top=0;left=0;bottom=0;right=0;pointerEvents=1;fontSize=16;" vertex="1" parent="pdiKYgsIZ1x_maHo6nU2-70">
          <mxGeometry x="120" width="60" height="40" as="geometry">
            <mxRectangle width="60" height="40" as="alternateBounds" />
          </mxGeometry>
        </mxCell>
        <mxCell id="pdiKYgsIZ1x_maHo6nU2-81" style="edgeStyle=none;curved=1;rounded=0;orthogonalLoop=1;jettySize=auto;html=1;exitX=1;exitY=0.25;exitDx=0;exitDy=0;entryX=0;entryY=0.25;entryDx=0;entryDy=0;fontSize=12;startSize=8;endSize=8;" edge="1" parent="1" source="pdiKYgsIZ1x_maHo6nU2-76" target="pdiKYgsIZ1x_maHo6nU2-78">
          <mxGeometry relative="1" as="geometry" />
        </mxCell>
        <mxCell id="pdiKYgsIZ1x_maHo6nU2-76" value="App" style="whiteSpace=wrap;html=1;aspect=fixed;fontSize=16;" vertex="1" parent="1">
          <mxGeometry x="-50" y="384" width="80" height="80" as="geometry" />
        </mxCell>
        <mxCell id="pdiKYgsIZ1x_maHo6nU2-77" value="" style="endArrow=classic;html=1;rounded=0;fontSize=12;startSize=8;endSize=8;curved=1;exitX=0.25;exitY=0;exitDx=0;exitDy=0;entryX=0.25;entryY=1;entryDx=0;entryDy=0;" edge="1" parent="1" source="pdiKYgsIZ1x_maHo6nU2-76" target="pdiKYgsIZ1x_maHo6nU2-7">
          <mxGeometry width="50" height="50" relative="1" as="geometry">
            <mxPoint x="-181" y="371" as="sourcePoint" />
            <mxPoint x="-131" y="321" as="targetPoint" />
          </mxGeometry>
        </mxCell>
        <mxCell id="pdiKYgsIZ1x_maHo6nU2-82" style="edgeStyle=none;curved=1;rounded=0;orthogonalLoop=1;jettySize=auto;html=1;exitX=0;exitY=0.75;exitDx=0;exitDy=0;entryX=1;entryY=0.75;entryDx=0;entryDy=0;fontSize=12;startSize=8;endSize=8;" edge="1" parent="1" source="pdiKYgsIZ1x_maHo6nU2-78" target="pdiKYgsIZ1x_maHo6nU2-76">
          <mxGeometry relative="1" as="geometry" />
        </mxCell>
        <mxCell id="pdiKYgsIZ1x_maHo6nU2-78" value="Calculate HI" style="triangle;whiteSpace=wrap;html=1;fontSize=16;" vertex="1" parent="1">
          <mxGeometry x="60" y="384" width="125" height="80" as="geometry" />
        </mxCell>
        <mxCell id="pdiKYgsIZ1x_maHo6nU2-79" value="" style="endArrow=classic;html=1;rounded=0;fontSize=12;startSize=8;endSize=8;curved=1;exitX=0.75;exitY=1;exitDx=0;exitDy=0;entryX=0.75;entryY=0;entryDx=0;entryDy=0;" edge="1" parent="1" source="pdiKYgsIZ1x_maHo6nU2-7" target="pdiKYgsIZ1x_maHo6nU2-76">
          <mxGeometry width="50" height="50" relative="1" as="geometry">
            <mxPoint x="182" y="232" as="sourcePoint" />
            <mxPoint x="232" y="182" as="targetPoint" />
          </mxGeometry>
        </mxCell>
        <mxCell id="pdiKYgsIZ1x_maHo6nU2-84" value="local TA and HR by three closest station value plane&lt;br&gt;" style="text;html=1;strokeColor=none;fillColor=none;align=center;verticalAlign=middle;whiteSpace=wrap;rounded=0;fontSize=16;" vertex="1" parent="1">
          <mxGeometry x="166" y="48" width="217" height="30" as="geometry" />
        </mxCell>
        <mxCell id="pdiKYgsIZ1x_maHo6nU2-85" value="heat index from TA and HR" style="text;html=1;strokeColor=none;fillColor=none;align=center;verticalAlign=middle;whiteSpace=wrap;rounded=0;fontSize=16;" vertex="1" parent="1">
          <mxGeometry x="100" y="452" width="175.5" height="30" as="geometry" />
        </mxCell>
      </root>
    </mxGraphModel>
  </diagram>
</mxfile>
